<svg width="131" height="75" viewBox="0 0 131 75" fill="none" xmlns="http://www.w3.org/2000/svg">
<path d="M10.2769 28.4098C10.5922 28.4671 10.9792 28.5245 11.4379 28.5818C11.8966 28.6105 12.3266 28.6248 12.7279 28.6248C13.7026 28.6248 14.5912 28.4815 15.3939 28.1948C16.2252 27.9081 16.9276 27.4638 17.5009 26.8618C18.1029 26.2598 18.5616 25.4858 18.8769 24.5398C19.2209 23.5651 19.3929 22.4041 19.3929 21.0568C19.3929 18.4768 18.7909 16.5418 17.5869 15.2518C16.3829 13.9331 14.7776 13.2738 12.7709 13.2738C12.3696 13.2738 11.9539 13.2881 11.5239 13.3168C11.1226 13.3455 10.7069 13.3885 10.2769 13.4458V28.4098ZM12.6849 34.6878C12.1976 34.6878 11.6386 34.6735 11.0079 34.6448C10.3772 34.6161 9.71792 34.5588 9.02992 34.4728C8.37059 34.3868 7.69692 34.2721 7.00892 34.1288C6.34959 34.0141 5.73325 33.8421 5.15992 33.6128C3.58325 33.0108 2.79492 31.9645 2.79492 30.4738V10.3928C2.79492 9.79076 2.95259 9.33209 3.26792 9.01676C3.61192 8.67276 4.07059 8.40042 4.64392 8.19976C5.87659 7.79843 7.18092 7.54043 8.55692 7.42576C9.93292 7.28243 11.1656 7.21076 12.2549 7.21076C14.4909 7.21076 16.5119 7.48309 18.3179 8.02776C20.1526 8.57243 21.7149 9.41809 23.0049 10.5648C24.3236 11.6828 25.3412 13.1018 26.0579 14.8218C26.7746 16.5418 27.1329 18.5771 27.1329 20.9278C27.1329 23.2211 26.7889 25.2278 26.1009 26.9478C25.4129 28.6391 24.4239 30.0725 23.1339 31.2478C21.8726 32.3945 20.3532 33.2545 18.5759 33.8278C16.7986 34.4011 14.8349 34.6878 12.6849 34.6878ZM39.8186 29.3558C40.3059 29.3558 40.8362 29.3128 41.4096 29.2268C42.0116 29.1121 42.4559 28.9688 42.7426 28.7968V25.3568L39.6466 25.6148C38.8439 25.6721 38.1846 25.8441 37.6686 26.1308C37.1526 26.4175 36.8946 26.8475 36.8946 27.4208C36.8946 27.9941 37.1096 28.4671 37.5396 28.8398C37.9982 29.1838 38.7579 29.3558 39.8186 29.3558ZM39.4746 12.4568C41.0226 12.4568 42.4272 12.6145 43.6886 12.9298C44.9786 13.2451 46.0679 13.7325 46.9566 14.3918C47.8739 15.0225 48.5762 15.8395 49.0636 16.8428C49.5509 17.8175 49.7946 18.9785 49.7946 20.3258V29.9578C49.7946 30.7031 49.5796 31.3195 49.1496 31.8068C48.7482 32.2655 48.2609 32.6668 47.6876 33.0108C45.8242 34.1288 43.2012 34.6878 39.8186 34.6878C38.2992 34.6878 36.9232 34.5445 35.6906 34.2578C34.4866 33.9711 33.4402 33.5411 32.5516 32.9678C31.6916 32.3945 31.0179 31.6635 30.5306 30.7748C30.0719 29.8861 29.8426 28.8541 29.8426 27.6788C29.8426 25.7008 30.4302 24.1815 31.6056 23.1208C32.7809 22.0601 34.6012 21.4008 37.0666 21.1428L42.6996 20.5408V20.2398C42.6996 19.4085 42.3269 18.8208 41.5816 18.4768C40.8649 18.1041 39.8186 17.9178 38.4426 17.9178C37.3532 17.9178 36.2926 18.0325 35.2606 18.2618C34.2286 18.4911 33.2969 18.7778 32.4656 19.1218C32.0929 18.8638 31.7776 18.4768 31.5196 17.9608C31.2616 17.4161 31.1326 16.8571 31.1326 16.2838C31.1326 15.5385 31.3046 14.9508 31.6486 14.5208C32.0212 14.0621 32.5802 13.6751 33.3256 13.3598C34.1569 13.0445 35.1316 12.8151 36.2496 12.6718C37.3962 12.5285 38.4712 12.4568 39.4746 12.4568ZM61.5742 26.8188C61.5742 27.5641 61.8036 28.0945 62.2622 28.4098C62.7496 28.7251 63.4232 28.8828 64.2832 28.8828C64.7132 28.8828 65.1576 28.8541 65.6162 28.7968C66.0749 28.7108 66.4762 28.6105 66.8202 28.4958C67.0782 28.8111 67.2932 29.1695 67.4652 29.5708C67.6659 29.9435 67.7662 30.4021 67.7662 30.9468C67.7662 32.0361 67.3506 32.9248 66.5192 33.6128C65.7166 34.3008 64.2832 34.6448 62.2192 34.6448C59.6966 34.6448 57.7472 34.0715 56.3712 32.9248C55.0239 31.7781 54.3502 29.9148 54.3502 27.3348V8.93076C54.6656 8.84476 55.1099 8.75876 55.6832 8.67276C56.2852 8.55809 56.9159 8.50076 57.5752 8.50076C58.8366 8.50076 59.8112 8.73009 60.4992 9.18876C61.2159 9.61876 61.5742 10.5505 61.5742 11.9838V14.7358H67.2072C67.3792 15.0511 67.5369 15.4525 67.6802 15.9398C67.8522 16.3985 67.9382 16.9145 67.9382 17.4878C67.9382 18.4911 67.7089 19.2221 67.2502 19.6808C66.8202 20.1108 66.2326 20.3258 65.4872 20.3258H61.5742V26.8188ZM71.309 7.29676C71.309 6.20742 71.6674 5.29009 72.384 4.54476C73.1294 3.79943 74.104 3.42676 75.308 3.42676C76.512 3.42676 77.4724 3.79943 78.189 4.54476C78.9344 5.29009 79.307 6.20742 79.307 7.29676C79.307 8.38609 78.9344 9.30343 78.189 10.0488C77.4724 10.7941 76.512 11.1668 75.308 11.1668C74.104 11.1668 73.1294 10.7941 72.384 10.0488C71.6674 9.30343 71.309 8.38609 71.309 7.29676ZM78.963 33.9568C78.6477 34.0141 78.1747 34.0858 77.544 34.1718C76.942 34.2865 76.3257 34.3438 75.695 34.3438C75.0644 34.3438 74.491 34.3008 73.975 34.2148C73.4877 34.1288 73.072 33.9568 72.728 33.6988C72.384 33.4408 72.1117 33.0968 71.911 32.6668C71.739 32.2081 71.653 31.6205 71.653 30.9038V13.4028C71.9684 13.3455 72.427 13.2738 73.029 13.1878C73.6597 13.0731 74.2904 13.0158 74.921 13.0158C75.5517 13.0158 76.1107 13.0588 76.598 13.1448C77.114 13.2308 77.544 13.4028 77.888 13.6608C78.232 13.9188 78.49 14.2771 78.662 14.7358C78.8627 15.1658 78.963 15.7391 78.963 16.4558V33.9568ZM96.8608 20.7558C96.8608 19.8671 96.6028 19.2221 96.0868 18.8208C95.5994 18.3908 94.9258 18.1758 94.0658 18.1758C93.4924 18.1758 92.9191 18.2475 92.3458 18.3908C91.8011 18.5341 91.3281 18.7491 90.9268 19.0358V33.9568C90.6401 34.0428 90.1814 34.1288 89.5508 34.2148C88.9488 34.3008 88.3181 34.3438 87.6588 34.3438C87.0281 34.3438 86.4548 34.3008 85.9388 34.2148C85.4514 34.1288 85.0358 33.9568 84.6918 33.6988C84.3478 33.4408 84.0754 33.0968 83.8748 32.6668C83.7028 32.2081 83.6168 31.6205 83.6168 30.9038V18.0038C83.6168 17.2298 83.7744 16.5991 84.0898 16.1118C84.4338 15.6245 84.8924 15.1801 85.4658 14.7788C86.4404 14.0908 87.6588 13.5318 89.1208 13.1018C90.6114 12.6718 92.2598 12.4568 94.0658 12.4568C97.3051 12.4568 99.7991 13.1735 101.548 14.6068C103.297 16.0115 104.171 17.9751 104.171 20.4978V33.9568C103.884 34.0428 103.426 34.1288 102.795 34.2148C102.193 34.3008 101.562 34.3438 100.903 34.3438C100.272 34.3438 99.6988 34.3008 99.1828 34.2148C98.6954 34.1288 98.2798 33.9568 97.9358 33.6988C97.5918 33.4408 97.3194 33.0968 97.1188 32.6668C96.9468 32.2081 96.8608 31.6205 96.8608 30.9038V20.7558ZM118.877 12.4568C120.511 12.4568 121.988 12.6718 123.306 13.1018C124.654 13.5031 125.786 14.0335 126.703 14.6928C127.277 15.0941 127.721 15.5385 128.036 16.0258C128.38 16.5131 128.552 17.1438 128.552 17.9178V32.9678C128.552 34.4871 128.266 35.7915 127.692 36.8808C127.119 37.9988 126.331 38.9161 125.327 39.6328C124.353 40.3781 123.192 40.9228 121.844 41.2668C120.526 41.6108 119.107 41.7828 117.587 41.7828C114.979 41.7828 112.929 41.4245 111.438 40.7078C109.948 40.0198 109.202 38.8875 109.202 37.3108C109.202 36.6515 109.331 36.0638 109.589 35.5478C109.876 35.0605 110.191 34.6878 110.535 34.4298C111.367 34.8885 112.298 35.2755 113.33 35.5908C114.391 35.9061 115.48 36.0638 116.598 36.0638C118.146 36.0638 119.379 35.8058 120.296 35.2898C121.214 34.7738 121.672 33.9425 121.672 32.7958V32.1078C120.497 32.6238 119.064 32.8818 117.372 32.8818C116.082 32.8818 114.85 32.6955 113.674 32.3228C112.528 31.9215 111.51 31.3195 110.621 30.5168C109.761 29.6855 109.059 28.6248 108.514 27.3348C107.998 26.0448 107.74 24.5111 107.74 22.7338C107.74 20.9851 108.013 19.4658 108.557 18.1758C109.131 16.8858 109.905 15.8251 110.879 14.9938C111.883 14.1338 113.058 13.5031 114.405 13.1018C115.781 12.6718 117.272 12.4568 118.877 12.4568ZM121.543 18.6918C121.343 18.5771 121.042 18.4625 120.64 18.3478C120.268 18.2331 119.795 18.1758 119.221 18.1758C117.817 18.1758 116.756 18.5771 116.039 19.3798C115.351 20.1538 115.007 21.2718 115.007 22.7338C115.007 24.3965 115.351 25.6005 116.039 26.3458C116.756 27.0625 117.659 27.4208 118.748 27.4208C119.924 27.4208 120.855 27.1485 121.543 26.6038V18.6918Z" fill="#171C1F"/>
<path d="M34.5559 52.0252C35.7599 52.0252 36.6772 51.7528 37.3079 51.2081C37.9672 50.6348 38.2969 49.7748 38.2969 48.6281C38.2969 47.5388 37.9529 46.7074 37.2649 46.1341C36.6056 45.5321 35.6309 45.2311 34.3409 45.2311C33.8822 45.2311 33.4952 45.2454 33.1799 45.2741C32.8932 45.2741 32.5922 45.3028 32.2769 45.3601V52.0252H34.5559ZM32.3199 65.8282C32.0046 65.9142 31.5029 66.0001 30.8149 66.0861C30.1556 66.1721 29.4962 66.2151 28.8369 66.2151C28.1776 66.2151 27.5899 66.1578 27.0739 66.0431C26.5866 65.9571 26.1709 65.7851 25.8269 65.5271C25.4829 65.2691 25.2249 64.9109 25.0529 64.4522C24.8809 63.9935 24.7949 63.3914 24.7949 62.6461V42.3932C24.7949 41.7912 24.9526 41.3324 25.2679 41.0171C25.6119 40.6731 26.0706 40.4008 26.6439 40.2001C27.6186 39.8561 28.7222 39.6125 29.9549 39.4692C31.2162 39.2972 32.4776 39.2111 33.7389 39.2111C37.6949 39.2111 40.7192 40.0568 42.8119 41.7481C44.9046 43.4394 45.9509 45.7328 45.9509 48.6281C45.9509 50.0328 45.7216 51.3085 45.2629 52.4552C44.8329 53.5732 44.1736 54.5479 43.2849 55.3792C42.4249 56.1819 41.3212 56.8124 39.9739 57.2711C38.6552 57.7011 37.1216 57.9161 35.3729 57.9161H32.3199V65.8282ZM57.7453 61.3561C58.2327 61.3561 58.763 61.3131 59.3363 61.2271C59.9383 61.1124 60.3827 60.9691 60.6693 60.7971V57.3571L57.5733 57.6152C56.7707 57.6725 56.1113 57.8444 55.5953 58.1311C55.0793 58.4178 54.8213 58.8479 54.8213 59.4212C54.8213 59.9945 55.0363 60.4674 55.4663 60.8401C55.925 61.1841 56.6847 61.3561 57.7453 61.3561ZM57.4013 44.4571C58.9493 44.4571 60.354 44.6148 61.6153 44.9301C62.9053 45.2454 63.9947 45.7328 64.8833 46.3921C65.8007 47.0228 66.503 47.8398 66.9903 48.8431C67.4777 49.8178 67.7213 50.9788 67.7213 52.3261V61.9581C67.7213 62.7034 67.5063 63.3198 67.0763 63.8071C66.675 64.2658 66.1877 64.6672 65.6143 65.0112C63.751 66.1292 61.128 66.6882 57.7453 66.6882C56.226 66.6882 54.85 66.5449 53.6173 66.2582C52.4133 65.9715 51.367 65.5415 50.4783 64.9682C49.6183 64.3949 48.9447 63.6639 48.4573 62.7752C47.9987 61.8865 47.7693 60.8544 47.7693 59.6791C47.7693 57.7011 48.357 56.1818 49.5323 55.1211C50.7077 54.0604 52.528 53.4012 54.9933 53.1432L60.6263 52.5411V52.2402C60.6263 51.4089 60.2537 50.8211 59.5083 50.4771C58.7917 50.1044 57.7453 49.9181 56.3693 49.9181C55.28 49.9181 54.2193 50.0328 53.1873 50.2621C52.1553 50.4914 51.2237 50.7782 50.3923 51.1222C50.0197 50.8642 49.7043 50.4771 49.4463 49.9611C49.1883 49.4164 49.0593 48.8574 49.0593 48.2841C49.0593 47.5388 49.2313 46.9511 49.5753 46.5211C49.948 46.0624 50.507 45.6754 51.2523 45.3601C52.0837 45.0448 53.0583 44.8154 54.1763 44.6721C55.323 44.5288 56.398 44.4571 57.4013 44.4571ZM93.82 55.5511C93.82 57.3284 93.5476 58.9195 93.003 60.3242C92.4583 61.7002 91.6843 62.8611 90.681 63.8071C89.7063 64.7531 88.531 65.4698 87.155 65.9571C85.779 66.4444 84.2453 66.6882 82.554 66.6882C80.8626 66.6882 79.329 66.4302 77.953 65.9142C76.577 65.3982 75.3873 64.6671 74.384 63.7211C73.4093 62.7464 72.6496 61.5711 72.105 60.1951C71.5603 58.8191 71.288 57.2711 71.288 55.5511C71.288 53.8598 71.5603 52.3261 72.105 50.9501C72.6496 49.5741 73.4093 48.4131 74.384 47.4671C75.3873 46.4924 76.577 45.7471 77.953 45.2311C79.329 44.7151 80.8626 44.4571 82.554 44.4571C84.2453 44.4571 85.779 44.7294 87.155 45.2741C88.531 45.7901 89.7063 46.5354 90.681 47.5101C91.6843 48.4561 92.4583 49.6171 93.003 50.9931C93.5476 52.3691 93.82 53.8884 93.82 55.5511ZM78.77 55.5511C78.77 57.2998 79.0996 58.6471 79.759 59.5931C80.447 60.5104 81.393 60.9692 82.597 60.9692C83.801 60.9692 84.7183 60.4961 85.349 59.5501C86.0083 58.6041 86.338 57.2711 86.338 55.5511C86.338 53.8311 86.0083 52.5124 85.349 51.5951C84.6896 50.6492 83.758 50.1761 82.554 50.1761C81.35 50.1761 80.4183 50.6492 79.759 51.5951C79.0996 52.5124 78.77 53.8311 78.77 55.5511ZM104.825 65.9571C104.51 66.0144 104.037 66.0861 103.406 66.1721C102.804 66.2868 102.188 66.3442 101.557 66.3442C100.927 66.3442 100.353 66.3011 99.8373 66.2151C99.35 66.1291 98.9343 65.9571 98.5903 65.6991C98.2463 65.4411 97.974 65.0971 97.7733 64.6671C97.6013 64.2084 97.5153 63.6208 97.5153 62.9041V37.9641C97.8306 37.9068 98.2893 37.8351 98.8913 37.7491C99.522 37.6344 100.153 37.5771 100.783 37.5771C101.414 37.5771 101.973 37.6202 102.46 37.7062C102.976 37.7922 103.406 37.9641 103.75 38.2221C104.094 38.4801 104.352 38.8384 104.524 39.2971C104.725 39.7271 104.825 40.3004 104.825 41.0171V65.9571ZM118.382 61.3561C118.869 61.3561 119.4 61.3131 119.973 61.2271C120.575 61.1124 121.019 60.9691 121.306 60.7971V57.3571L118.21 57.6152C117.407 57.6725 116.748 57.8444 116.232 58.1311C115.716 58.4178 115.458 58.8479 115.458 59.4212C115.458 59.9945 115.673 60.4674 116.103 60.8401C116.562 61.1841 117.321 61.3561 118.382 61.3561ZM118.038 44.4571C119.586 44.4571 120.991 44.6148 122.252 44.9301C123.542 45.2454 124.631 45.7328 125.52 46.3921C126.437 47.0228 127.14 47.8398 127.627 48.8431C128.114 49.8178 128.358 50.9788 128.358 52.3261V61.9581C128.358 62.7034 128.143 63.3198 127.713 63.8071C127.312 64.2658 126.824 64.6672 126.251 65.0112C124.388 66.1292 121.765 66.6882 118.382 66.6882C116.863 66.6882 115.487 66.5449 114.254 66.2582C113.05 65.9715 112.004 65.5415 111.115 64.9682C110.255 64.3949 109.581 63.6639 109.094 62.7752C108.635 61.8865 108.406 60.8544 108.406 59.6791C108.406 57.7011 108.994 56.1818 110.169 55.1211C111.344 54.0604 113.165 53.4012 115.63 53.1432L121.263 52.5411V52.2402C121.263 51.4089 120.89 50.8211 120.145 50.4771C119.428 50.1044 118.382 49.9181 117.006 49.9181C115.917 49.9181 114.856 50.0328 113.824 50.2621C112.792 50.4914 111.86 50.7782 111.029 51.1222C110.656 50.8642 110.341 50.4771 110.083 49.9611C109.825 49.4164 109.696 48.8574 109.696 48.2841C109.696 47.5388 109.868 46.9511 110.212 46.5211C110.585 46.0624 111.144 45.6754 111.889 45.3601C112.72 45.0448 113.695 44.8154 114.813 44.6721C115.96 44.5288 117.035 44.4571 118.038 44.4571Z" fill="#171C1F"/>
<path d="M0.97168 43.2816C1.09168 43.2456 1.28368 43.2096 1.54768 43.1736C1.81168 43.1256 2.08168 43.1016 2.35768 43.1016C2.62168 43.1016 2.85568 43.1196 3.05968 43.1556C3.27568 43.1916 3.45568 43.2636 3.59968 43.3716C3.74368 43.4796 3.85168 43.6296 3.92368 43.8216C3.99568 44.0016 4.03168 44.2416 4.03168 44.5416V46.3056C4.33168 46.1856 4.61368 46.1016 4.87768 46.0536C5.15368 46.0056 5.45368 45.9816 5.77768 45.9816C6.35368 45.9816 6.89968 46.0836 7.41568 46.2876C7.93168 46.4916 8.38768 46.7916 8.78368 47.1876C9.17968 47.5716 9.49168 48.0516 9.71968 48.6276C9.94768 49.2036 10.0617 49.8696 10.0617 50.6256C10.0617 51.4056 9.94168 52.0896 9.70168 52.6776C9.47368 53.2536 9.14968 53.7336 8.72968 54.1176C8.30968 54.5016 7.79368 54.7956 7.18168 54.9996C6.58168 55.1916 5.91568 55.2876 5.18368 55.2876C4.39168 55.2876 3.71968 55.1916 3.16768 54.9996C2.61568 54.8196 2.14768 54.5916 1.76368 54.3156C1.23568 53.9436 0.97168 53.4636 0.97168 52.8756V43.2816ZM5.18368 52.8756C5.73568 52.8756 6.16168 52.6896 6.46168 52.3176C6.77368 51.9336 6.92968 51.3696 6.92968 50.6256C6.92968 49.8696 6.77368 49.3056 6.46168 48.9336C6.14968 48.5616 5.72968 48.3756 5.20168 48.3756C4.96168 48.3756 4.75168 48.3996 4.57168 48.4476C4.40368 48.4956 4.21768 48.5676 4.01368 48.6636V52.5876C4.14568 52.6716 4.30168 52.7436 4.48168 52.8036C4.67368 52.8516 4.90768 52.8756 5.18368 52.8756ZM12.6924 52.7676C12.5604 52.4676 12.4164 52.1316 12.2604 51.7596C12.1164 51.3876 11.9604 50.9616 11.7924 50.4816C11.6364 50.0016 11.4684 49.4556 11.2884 48.8436C11.1204 48.2196 10.9404 47.5056 10.7484 46.7016C10.9164 46.5336 11.1384 46.3896 11.4144 46.2696C11.7024 46.1376 12.0144 46.0716 12.3504 46.0716C12.7704 46.0716 13.1184 46.1616 13.3944 46.3416C13.6704 46.5096 13.8744 46.8336 14.0064 47.3136L15.4284 52.2636H15.5004C15.6444 51.8556 15.7824 51.4116 15.9144 50.9316C16.0584 50.4516 16.1964 49.9596 16.3284 49.4556C16.4604 48.9396 16.5804 48.4296 16.6884 47.9256C16.8084 47.4096 16.9104 46.9056 16.9944 46.4136C17.4264 46.1856 17.9004 46.0716 18.4164 46.0716C18.8364 46.0716 19.1844 46.1616 19.4604 46.3416C19.7364 46.5216 19.8744 46.8336 19.8744 47.2776C19.8744 47.6016 19.8324 47.9796 19.7484 48.4116C19.6644 48.8316 19.5504 49.2816 19.4064 49.7616C19.2744 50.2416 19.1124 50.7396 18.9204 51.2556C18.7404 51.7596 18.5484 52.2576 18.3444 52.7496C18.1404 53.2416 17.9304 53.7096 17.7144 54.1536C17.4984 54.5856 17.2884 54.9756 17.0844 55.3236C16.7484 55.9116 16.4364 56.3916 16.1484 56.7636C15.8604 57.1356 15.5844 57.4236 15.3204 57.6276C15.0564 57.8436 14.7924 57.9876 14.5284 58.0596C14.2644 58.1436 13.9884 58.1856 13.7004 58.1856C13.1964 58.1856 12.7884 58.0356 12.4764 57.7356C12.1644 57.4356 11.9784 57.0456 11.9184 56.5656C12.3024 56.2656 12.6864 55.9296 13.0704 55.5576C13.4544 55.1976 13.8024 54.8256 14.1144 54.4416C13.9104 54.3816 13.6884 54.2436 13.4484 54.0276C13.2204 53.7996 12.9684 53.3796 12.6924 52.7676Z" fill="#171C1F"/>
<path fill-rule="evenodd" clip-rule="evenodd" d="M1.4944 59.7397C-0.225597 60.5696 -0.481753 61.7896 0.834543 62.8818C1.38989 63.3436 2.07775 63.3778 2.71301 62.9761C4.41183 61.9016 6.42214 62.2473 8.83751 64.0294C11.5575 66.0363 15.8958 66.3218 18.2811 64.651C20.5981 63.028 19.0721 61.515 15.6669 62.0594C13.6368 62.3839 12.4496 62.0942 10.0513 60.6885C6.85248 58.8141 4.05731 58.504 1.4944 59.7397Z" fill="#ECA23F"/>
</svg>
