<svg width="23" height="22" viewBox="0 0 23 22" fill="none" xmlns="http://www.w3.org/2000/svg">
<path d="M12.7495 19.9165L11.6655 21.0005C11.2065 21.4595 10.4644 21.4595 10.0103 21.0005L0.518066 11.5132C0.059082 11.0542 0.059082 10.312 0.518066 9.85791L10.0103 0.365723C10.4692 -0.0932617 11.2114 -0.0932617 11.6655 0.365723L12.7495 1.44971C13.2134 1.91357 13.2036 2.67041 12.73 3.12451L6.84619 8.72998H20.8794C21.5288 8.72998 22.0513 9.25244 22.0513 9.90186V11.4644C22.0513 12.1138 21.5288 12.6362 20.8794 12.6362H6.84619L12.73 18.2417C13.2085 18.6958 13.2183 19.4526 12.7495 19.9165Z" fill="black"/>
</svg>
