<svg width="30" height="53" viewBox="0 0 30 53" fill="none" xmlns="http://www.w3.org/2000/svg">
<path fill-rule="evenodd" clip-rule="evenodd" d="M2.66414 0.178183C0.382393 1.02166 -0.627113 3.37572 0.404333 5.44791C0.550178 5.74083 5.22249 10.5416 10.7874 16.116L20.9055 26.2515L10.7874 36.3869C5.22249 41.9613 0.527537 46.7988 0.354313 47.1366C-0.305939 48.4241 0.0868423 50.4582 1.18902 51.4599C2.29962 52.4692 4.13576 52.7719 5.3743 52.1501C6.22936 51.7207 29.1688 28.8077 29.6336 27.9188C30.0972 27.0319 30.125 25.5314 29.6934 24.6719C29.2818 23.8527 6.35274 0.877923 5.50645 0.437053C4.60664 -0.031722 3.50376 -0.132111 2.66414 0.178183Z" fill="black"/>
</svg>
